<?xml version="1.0" encoding="UTF-8"?>
<svg id="Layer_2" data-name="Layer 2" xmlns="http://www.w3.org/2000/svg" viewBox="0 0 259.26 259.26">
  <defs>
    <style>
      .cls-1, .cls-2 {
        fill: #fff;
      }

      .cls-2 {
        stroke: #09214a;
        stroke-miterlimit: 10;
        stroke-width: 3px;
      }

      .cls-3 {
        fill: #09214a;
      }

      .cls-4 {
        fill: none;
      }
    </style>
  </defs>
  <g id="Layer_1-2" data-name="Layer 1">
    <circle class="cls-1" cx="129.63" cy="129.63" r="129.63"/>
    <circle class="cls-2" cx="129.71" cy="129.84" r="120.2"/>
    <path class="cls-3" d="m150.28,136.49v23.59c0,3.68-2.4,7-6.08,8.41l-8.57,3.28v-48.81l14.65,13.53Z"/>
    <path class="cls-3" d="m99.39,80.24v82.84c0,6.09-5.35,11.03-11.95,11.03h-36.99v-17.21l.18-.17,15.83,14.61h18.26v-81.67l-34.23,15.25v-2.86l48.89-21.81Z"/>
    <polygon class="cls-3" points="150.28 110.69 150.28 75.56 130.34 66.8 107.59 76.96 107.59 174.17 122.24 174.17 128.58 174.17 136.07 171.6 122.24 171.6 122.24 73.81 130.34 70.19 135.62 72.62 135.62 124.24 150.28 110.69"/>
    <polygon class="cls-3" points="208.71 94.04 208.71 97.8 134.5 64.72 130.28 62.84 126.06 64.72 50.5 98.39 50.5 94.63 121.83 62.84 126.06 60.97 130.28 59.09 134.5 60.97 138.73 62.84 208.71 94.04"/>
    <rect class="cls-3" x="49.83" y="178.38" width="158.2" height="3.09"/>
    <polygon class="cls-3" points="207.73 156.72 191.9 171.33 173.64 171.33 173.64 89.66 173.74 89.7 173.74 86.82 158.99 80.24 158.99 163.07 159.15 174.1 207.92 174.1 207.92 156.89 207.73 156.72"/>
    <polygon class="cls-3" points="182.01 93.39 207.87 104.91 207.87 102.04 182.01 90.51 182.01 93.39"/>
    <line class="cls-4" x1="42.46" y1="36.43" x2="219.58" y2="223.23"/>
  </g>
</svg>